# xmcd CD database file
#
# Track frame offsets:
#	150
#	19741
#	42183
#	61710
#	83262
#	100872
#	117109
#	135673
#	159165
#	175266
#	199194
#
# Disc length: 2949 seconds
#
# Revision: 2
# Processed by: cddbd v1.5.2PL0 Copyright (c) Steve Scherf et al.
# Submitted via: CDex 1.70beta3
#
DISCID=7a0b830b
DTITLE=Vocaloid - DEBUTANTE /k-shi studio Disc2
DYEAR=2008
DGENRE=Vocaloid
TTITLE0=OSTER project - フキゲンワルツ
TTITLE1=sasakure.UK - ニジイロ＊アドベンチュア
TTITLE2=デッドボールP - 椿の花
TTITLE3=NA - TOO BAD GIRL (STRAIGHT RUN)
TTITLE4=右近 - ピース・ピース
TTITLE5=Sick - vermilion
TTITLE6=Yanagi - PASSIONAIRE
TTITLE7=kz - Light Song
TTITLE8=sick - Vo. sick - vermilion
TTITLE9=Na+ - Vo. はるよ - TOO BAD GIRL (STRAIGHT RUN)
TTITLE10=OSTER project - Vo. Milia - フキゲンワルツ
EXTD=YEAR: 2008
EXTT0=
EXTT1=
EXTT2=
EXTT3=
EXTT4=
EXTT5=
EXTT6=
EXTT7=
EXTT8=
EXTT9=
EXTT10=
PLAYORDER=
